<svg xmlns="http://www.w3.org/2000/svg" xmlns:xlink="http://www.w3.org/1999/xlink" width="300" zoomAndPan="magnify" viewBox="0 0 224.87999 37.5" height="50" preserveAspectRatio="xMidYMid meet" version="1.0"><defs><g/><clipPath id="78b00237b4"><path d="M 6.898438 0 L 32 0 L 32 37 L 6.898438 37 Z M 6.898438 0 " clip-rule="nonzero"/></clipPath><clipPath id="5a78d0074b"><path d="M 6.902344 19.578125 C 6.902344 15.164062 6.90625 11.097656 6.898438 7.03125 C 6.894531 6.511719 7.117188 6.164062 7.566406 5.960938 C 8.726562 5.4375 9.894531 4.929688 11.0625 4.410156 C 12.113281 3.941406 13.160156 3.46875 14.210938 2.996094 C 16 2.195312 17.789062 1.390625 19.578125 0.589844 C 19.898438 0.445312 20.214844 0.300781 20.527344 0.144531 C 20.898438 -0.0429688 21.25 -0.03125 21.625 0.144531 C 23.679688 1.121094 25.742188 2.085938 27.796875 3.054688 C 28.789062 3.523438 29.773438 4.007812 30.78125 4.445312 C 31.199219 4.625 31.246094 5.078125 30.871094 5.371094 C 29.546875 6.414062 28.25 7.488281 26.933594 8.542969 C 25.597656 9.613281 24.25 10.667969 22.914062 11.734375 C 21.777344 12.640625 20.65625 13.5625 19.523438 14.472656 C 18.597656 15.214844 17.664062 15.949219 16.742188 16.6875 C 16.398438 16.960938 16.066406 17.242188 15.734375 17.527344 C 15.398438 17.820312 15.300781 18.296875 15.484375 18.730469 C 15.832031 19.53125 16.183594 20.328125 16.542969 21.121094 C 16.894531 21.898438 17.257812 22.667969 17.613281 23.445312 C 18.171875 24.660156 18.726562 25.878906 19.285156 27.097656 C 19.664062 27.925781 20.046875 28.753906 20.425781 29.582031 C 20.683594 30.148438 20.9375 30.71875 21.195312 31.285156 C 21.582031 32.132812 21.972656 32.980469 22.359375 33.828125 C 22.558594 34.265625 22.765625 34.703125 22.949219 35.152344 C 23.097656 35.515625 22.890625 35.957031 22.496094 36.179688 C 22.125 36.386719 21.757812 36.597656 21.394531 36.8125 C 20.914062 37.097656 20.542969 37.054688 20.097656 36.703125 C 19.78125 36.457031 19.433594 36.253906 19.105469 36.03125 C 18.714844 35.765625 18.320312 35.507812 17.941406 35.230469 C 16.980469 34.527344 16.003906 33.851562 15.082031 33.105469 C 13.863281 32.117188 12.710938 31.050781 11.675781 29.867188 C 11.167969 29.289062 10.640625 28.71875 10.179688 28.101562 C 9.785156 27.570312 9.433594 27 9.125 26.414062 C 8.691406 25.597656 8.269531 24.773438 7.933594 23.917969 C 7.609375 23.085938 7.351562 22.21875 7.148438 21.347656 C 6.984375 20.660156 6.949219 19.945312 6.902344 19.578125 Z M 6.902344 19.578125 " clip-rule="nonzero"/></clipPath><linearGradient x1="454.57999" gradientTransform="matrix(0.0266489, 0, 0, 0.026879, 6.897232, 0.00729671)" y1="1376.511251" x2="454.57999" gradientUnits="userSpaceOnUse" y2="-0.271428" id="c1d0a2c9b0"><stop stop-opacity="1" stop-color="rgb(46.299744%, 6.298828%, 5.499268%)" offset="0"/><stop stop-opacity="1" stop-color="rgb(46.504211%, 6.274414%, 5.477905%)" offset="0.00390625"/><stop stop-opacity="1" stop-color="rgb(46.708679%, 6.251526%, 5.458069%)" offset="0.0078125"/><stop stop-opacity="1" stop-color="rgb(46.917725%, 6.227112%, 5.435181%)" offset="0.0117188"/><stop stop-opacity="1" stop-color="rgb(47.128296%, 6.202698%, 5.413818%)" offset="0.015625"/><stop stop-opacity="1" stop-color="rgb(47.337341%, 6.176758%, 5.392456%)" offset="0.0195312"/><stop stop-opacity="1" stop-color="rgb(47.547913%, 6.152344%, 5.371094%)" offset="0.0234375"/><stop stop-opacity="1" stop-color="rgb(47.756958%, 6.12793%, 5.349731%)" offset="0.0273437"/><stop stop-opacity="1" stop-color="rgb(47.967529%, 6.103516%, 5.328369%)" offset="0.03125"/><stop stop-opacity="1" stop-color="rgb(48.176575%, 6.079102%, 5.307007%)" offset="0.0351562"/><stop stop-opacity="1" stop-color="rgb(48.387146%, 6.054688%, 5.285645%)" offset="0.0390625"/><stop stop-opacity="1" stop-color="rgb(48.596191%, 6.028748%, 5.264282%)" offset="0.0429687"/><stop stop-opacity="1" stop-color="rgb(48.806763%, 6.004333%, 5.24292%)" offset="0.046875"/><stop stop-opacity="1" stop-color="rgb(49.015808%, 5.979919%, 5.220032%)" offset="0.0507812"/><stop stop-opacity="1" stop-color="rgb(49.226379%, 5.955505%, 5.198669%)" offset="0.0546875"/><stop stop-opacity="1" stop-color="rgb(49.435425%, 5.931091%, 5.177307%)" offset="0.0585937"/><stop stop-opacity="1" stop-color="rgb(49.645996%, 5.906677%, 5.155945%)" offset="0.0625"/><stop stop-opacity="1" stop-color="rgb(49.855042%, 5.882263%, 5.134583%)" offset="0.0664062"/><stop stop-opacity="1" stop-color="rgb(50.065613%, 5.857849%, 5.11322%)" offset="0.0703125"/><stop stop-opacity="1" stop-color="rgb(50.274658%, 5.831909%, 5.091858%)" offset="0.0742187"/><stop stop-opacity="1" stop-color="rgb(50.485229%, 5.807495%, 5.070496%)" offset="0.078125"/><stop stop-opacity="1" stop-color="rgb(50.694275%, 5.783081%, 5.049133%)" offset="0.0820312"/><stop stop-opacity="1" stop-color="rgb(50.904846%, 5.758667%, 5.027771%)" offset="0.0859375"/><stop stop-opacity="1" stop-color="rgb(51.113892%, 5.734253%, 5.006409%)" offset="0.0898438"/><stop stop-opacity="1" stop-color="rgb(51.324463%, 5.709839%, 4.985046%)" offset="0.09375"/><stop stop-opacity="1" stop-color="rgb(51.533508%, 5.685425%, 4.962158%)" offset="0.0976562"/><stop stop-opacity="1" stop-color="rgb(51.74408%, 5.661011%, 4.940796%)" offset="0.101562"/><stop stop-opacity="1" stop-color="rgb(51.953125%, 5.635071%, 4.919434%)" offset="0.105469"/><stop stop-opacity="1" stop-color="rgb(52.163696%, 5.610657%, 4.898071%)" offset="0.109375"/><stop stop-opacity="1" stop-color="rgb(52.374268%, 5.586243%, 4.876709%)" offset="0.113281"/><stop stop-opacity="1" stop-color="rgb(52.584839%, 5.561829%, 4.855347%)" offset="0.117187"/><stop stop-opacity="1" stop-color="rgb(52.793884%, 5.537415%, 4.833984%)" offset="0.121094"/><stop stop-opacity="1" stop-color="rgb(53.004456%, 5.513%, 4.812622%)" offset="0.125"/><stop stop-opacity="1" stop-color="rgb(53.213501%, 5.488586%, 4.79126%)" offset="0.128906"/><stop stop-opacity="1" stop-color="rgb(53.424072%, 5.464172%, 4.769897%)" offset="0.132812"/><stop stop-opacity="1" stop-color="rgb(53.633118%, 5.438232%, 4.748535%)" offset="0.136719"/><stop stop-opacity="1" stop-color="rgb(53.843689%, 5.413818%, 4.727173%)" offset="0.140625"/><stop stop-opacity="1" stop-color="rgb(54.052734%, 5.389404%, 4.704285%)" offset="0.144531"/><stop stop-opacity="1" stop-color="rgb(54.263306%, 5.36499%, 4.682922%)" offset="0.148438"/><stop stop-opacity="1" stop-color="rgb(54.472351%, 5.340576%, 4.66156%)" offset="0.152344"/><stop stop-opacity="1" stop-color="rgb(54.682922%, 5.316162%, 4.640198%)" offset="0.15625"/><stop stop-opacity="1" stop-color="rgb(54.891968%, 5.290222%, 4.618835%)" offset="0.160156"/><stop stop-opacity="1" stop-color="rgb(55.102539%, 5.265808%, 4.597473%)" offset="0.164062"/><stop stop-opacity="1" stop-color="rgb(55.311584%, 5.241394%, 4.576111%)" offset="0.167969"/><stop stop-opacity="1" stop-color="rgb(55.522156%, 5.21698%, 4.554749%)" offset="0.171875"/><stop stop-opacity="1" stop-color="rgb(55.731201%, 5.192566%, 4.533386%)" offset="0.175781"/><stop stop-opacity="1" stop-color="rgb(55.941772%, 5.168152%, 4.512024%)" offset="0.179688"/><stop stop-opacity="1" stop-color="rgb(56.150818%, 5.143738%, 4.490662%)" offset="0.183594"/><stop stop-opacity="1" stop-color="rgb(56.361389%, 5.119324%, 4.469299%)" offset="0.1875"/><stop stop-opacity="1" stop-color="rgb(56.570435%, 5.093384%, 4.446411%)" offset="0.191406"/><stop stop-opacity="1" stop-color="rgb(56.781006%, 5.06897%, 4.425049%)" offset="0.195312"/><stop stop-opacity="1" stop-color="rgb(56.990051%, 5.044556%, 4.403687%)" offset="0.199219"/><stop stop-opacity="1" stop-color="rgb(57.200623%, 5.020142%, 4.382324%)" offset="0.203125"/><stop stop-opacity="1" stop-color="rgb(57.409668%, 4.995728%, 4.360962%)" offset="0.207031"/><stop stop-opacity="1" stop-color="rgb(57.620239%, 4.971313%, 4.3396%)" offset="0.210938"/><stop stop-opacity="1" stop-color="rgb(57.829285%, 4.946899%, 4.318237%)" offset="0.214844"/><stop stop-opacity="1" stop-color="rgb(58.039856%, 4.922485%, 4.296875%)" offset="0.21875"/><stop stop-opacity="1" stop-color="rgb(58.248901%, 4.896545%, 4.275513%)" offset="0.222656"/><stop stop-opacity="1" stop-color="rgb(58.459473%, 4.872131%, 4.25415%)" offset="0.226562"/><stop stop-opacity="1" stop-color="rgb(58.668518%, 4.847717%, 4.232788%)" offset="0.230469"/><stop stop-opacity="1" stop-color="rgb(58.879089%, 4.823303%, 4.211426%)" offset="0.234375"/><stop stop-opacity="1" stop-color="rgb(59.088135%, 4.798889%, 4.188538%)" offset="0.238281"/><stop stop-opacity="1" stop-color="rgb(59.298706%, 4.774475%, 4.167175%)" offset="0.242187"/><stop stop-opacity="1" stop-color="rgb(59.507751%, 4.748535%, 4.145813%)" offset="0.246094"/><stop stop-opacity="1" stop-color="rgb(59.718323%, 4.724121%, 4.124451%)" offset="0.25"/><stop stop-opacity="1" stop-color="rgb(59.927368%, 4.699707%, 4.103088%)" offset="0.253906"/><stop stop-opacity="1" stop-color="rgb(60.137939%, 4.675293%, 4.081726%)" offset="0.257812"/><stop stop-opacity="1" stop-color="rgb(60.348511%, 4.650879%, 4.060364%)" offset="0.261719"/><stop stop-opacity="1" stop-color="rgb(60.559082%, 4.626465%, 4.039001%)" offset="0.265625"/><stop stop-opacity="1" stop-color="rgb(60.768127%, 4.602051%, 4.017639%)" offset="0.269531"/><stop stop-opacity="1" stop-color="rgb(60.978699%, 4.577637%, 3.996277%)" offset="0.273438"/><stop stop-opacity="1" stop-color="rgb(61.187744%, 4.551697%, 3.974915%)" offset="0.277344"/><stop stop-opacity="1" stop-color="rgb(61.398315%, 4.527283%, 3.953552%)" offset="0.28125"/><stop stop-opacity="1" stop-color="rgb(61.607361%, 4.502869%, 3.930664%)" offset="0.285156"/><stop stop-opacity="1" stop-color="rgb(61.817932%, 4.478455%, 3.909302%)" offset="0.289062"/><stop stop-opacity="1" stop-color="rgb(62.026978%, 4.454041%, 3.887939%)" offset="0.292969"/><stop stop-opacity="1" stop-color="rgb(62.237549%, 4.429626%, 3.866577%)" offset="0.296875"/><stop stop-opacity="1" stop-color="rgb(62.446594%, 4.405212%, 3.845215%)" offset="0.300781"/><stop stop-opacity="1" stop-color="rgb(62.657166%, 4.380798%, 3.823853%)" offset="0.304688"/><stop stop-opacity="1" stop-color="rgb(62.866211%, 4.354858%, 3.80249%)" offset="0.308594"/><stop stop-opacity="1" stop-color="rgb(63.076782%, 4.330444%, 3.781128%)" offset="0.3125"/><stop stop-opacity="1" stop-color="rgb(63.285828%, 4.30603%, 3.759766%)" offset="0.316406"/><stop stop-opacity="1" stop-color="rgb(63.496399%, 4.281616%, 3.738403%)" offset="0.320312"/><stop stop-opacity="1" stop-color="rgb(63.705444%, 4.257202%, 3.717041%)" offset="0.324219"/><stop stop-opacity="1" stop-color="rgb(63.916016%, 4.232788%, 3.695679%)" offset="0.328125"/><stop stop-opacity="1" stop-color="rgb(64.125061%, 4.208374%, 3.672791%)" offset="0.332031"/><stop stop-opacity="1" stop-color="rgb(64.335632%, 4.18396%, 3.651428%)" offset="0.335938"/><stop stop-opacity="1" stop-color="rgb(64.544678%, 4.15802%, 3.630066%)" offset="0.339844"/><stop stop-opacity="1" stop-color="rgb(64.755249%, 4.133606%, 3.608704%)" offset="0.34375"/><stop stop-opacity="1" stop-color="rgb(64.964294%, 4.109192%, 3.587341%)" offset="0.347656"/><stop stop-opacity="1" stop-color="rgb(65.174866%, 4.084778%, 3.565979%)" offset="0.351562"/><stop stop-opacity="1" stop-color="rgb(65.383911%, 4.060364%, 3.544617%)" offset="0.355469"/><stop stop-opacity="1" stop-color="rgb(65.594482%, 4.03595%, 3.523254%)" offset="0.359375"/><stop stop-opacity="1" stop-color="rgb(65.803528%, 4.01001%, 3.501892%)" offset="0.363281"/><stop stop-opacity="1" stop-color="rgb(66.014099%, 3.985596%, 3.48053%)" offset="0.367188"/><stop stop-opacity="1" stop-color="rgb(66.223145%, 3.961182%, 3.457642%)" offset="0.371094"/><stop stop-opacity="1" stop-color="rgb(66.433716%, 3.936768%, 3.436279%)" offset="0.375"/><stop stop-opacity="1" stop-color="rgb(66.642761%, 3.912354%, 3.414917%)" offset="0.378906"/><stop stop-opacity="1" stop-color="rgb(66.853333%, 3.887939%, 3.393555%)" offset="0.382812"/><stop stop-opacity="1" stop-color="rgb(67.062378%, 3.863525%, 3.372192%)" offset="0.386719"/><stop stop-opacity="1" stop-color="rgb(67.272949%, 3.839111%, 3.35083%)" offset="0.390625"/><stop stop-opacity="1" stop-color="rgb(67.481995%, 3.813171%, 3.329468%)" offset="0.394531"/><stop stop-opacity="1" stop-color="rgb(67.692566%, 3.788757%, 3.308105%)" offset="0.398438"/><stop stop-opacity="1" stop-color="rgb(67.901611%, 3.764343%, 3.286743%)" offset="0.402344"/><stop stop-opacity="1" stop-color="rgb(68.112183%, 3.739929%, 3.265381%)" offset="0.40625"/><stop stop-opacity="1" stop-color="rgb(68.322754%, 3.715515%, 3.244019%)" offset="0.410156"/><stop stop-opacity="1" stop-color="rgb(68.533325%, 3.691101%, 3.222656%)" offset="0.414062"/><stop stop-opacity="1" stop-color="rgb(68.742371%, 3.666687%, 3.199768%)" offset="0.417969"/><stop stop-opacity="1" stop-color="rgb(68.952942%, 3.642273%, 3.178406%)" offset="0.421875"/><stop stop-opacity="1" stop-color="rgb(69.161987%, 3.616333%, 3.157043%)" offset="0.425781"/><stop stop-opacity="1" stop-color="rgb(69.372559%, 3.591919%, 3.135681%)" offset="0.429688"/><stop stop-opacity="1" stop-color="rgb(69.581604%, 3.567505%, 3.114319%)" offset="0.433594"/><stop stop-opacity="1" stop-color="rgb(69.792175%, 3.543091%, 3.092957%)" offset="0.4375"/><stop stop-opacity="1" stop-color="rgb(70.001221%, 3.518677%, 3.071594%)" offset="0.441406"/><stop stop-opacity="1" stop-color="rgb(70.211792%, 3.494263%, 3.050232%)" offset="0.445313"/><stop stop-opacity="1" stop-color="rgb(70.420837%, 3.468323%, 3.02887%)" offset="0.449219"/><stop stop-opacity="1" stop-color="rgb(70.631409%, 3.443909%, 3.007507%)" offset="0.453125"/><stop stop-opacity="1" stop-color="rgb(70.840454%, 3.419495%, 2.986145%)" offset="0.457031"/><stop stop-opacity="1" stop-color="rgb(71.051025%, 3.395081%, 2.964783%)" offset="0.460938"/><stop stop-opacity="1" stop-color="rgb(71.260071%, 3.370667%, 2.941895%)" offset="0.464844"/><stop stop-opacity="1" stop-color="rgb(71.470642%, 3.346252%, 2.920532%)" offset="0.46875"/><stop stop-opacity="1" stop-color="rgb(71.679688%, 3.321838%, 2.89917%)" offset="0.472656"/><stop stop-opacity="1" stop-color="rgb(71.890259%, 3.297424%, 2.877808%)" offset="0.476562"/><stop stop-opacity="1" stop-color="rgb(72.099304%, 3.271484%, 2.856445%)" offset="0.480469"/><stop stop-opacity="1" stop-color="rgb(72.309875%, 3.24707%, 2.835083%)" offset="0.484375"/><stop stop-opacity="1" stop-color="rgb(72.518921%, 3.222656%, 2.813721%)" offset="0.488281"/><stop stop-opacity="1" stop-color="rgb(72.729492%, 3.198242%, 2.792358%)" offset="0.492188"/><stop stop-opacity="1" stop-color="rgb(72.938538%, 3.173828%, 2.770996%)" offset="0.496094"/><stop stop-opacity="1" stop-color="rgb(73.149109%, 3.149414%, 2.749634%)" offset="0.5"/><stop stop-opacity="1" stop-color="rgb(73.358154%, 3.125%, 2.728271%)" offset="0.503906"/><stop stop-opacity="1" stop-color="rgb(73.568726%, 3.100586%, 2.706909%)" offset="0.507813"/><stop stop-opacity="1" stop-color="rgb(73.777771%, 3.074646%, 2.684021%)" offset="0.511719"/><stop stop-opacity="1" stop-color="rgb(73.988342%, 3.050232%, 2.662659%)" offset="0.515625"/><stop stop-opacity="1" stop-color="rgb(74.197388%, 3.025818%, 2.641296%)" offset="0.519531"/><stop stop-opacity="1" stop-color="rgb(74.407959%, 3.001404%, 2.619934%)" offset="0.523438"/><stop stop-opacity="1" stop-color="rgb(74.617004%, 2.97699%, 2.598572%)" offset="0.527344"/><stop stop-opacity="1" stop-color="rgb(74.827576%, 2.952576%, 2.577209%)" offset="0.53125"/><stop stop-opacity="1" stop-color="rgb(75.036621%, 2.928162%, 2.555847%)" offset="0.535156"/><stop stop-opacity="1" stop-color="rgb(75.247192%, 2.903748%, 2.534485%)" offset="0.539062"/><stop stop-opacity="1" stop-color="rgb(75.456238%, 2.877808%, 2.513123%)" offset="0.542969"/><stop stop-opacity="1" stop-color="rgb(75.666809%, 2.853394%, 2.49176%)" offset="0.546875"/><stop stop-opacity="1" stop-color="rgb(75.875854%, 2.828979%, 2.470398%)" offset="0.550781"/><stop stop-opacity="1" stop-color="rgb(76.086426%, 2.804565%, 2.449036%)" offset="0.554688"/><stop stop-opacity="1" stop-color="rgb(76.296997%, 2.780151%, 2.426147%)" offset="0.558594"/><stop stop-opacity="1" stop-color="rgb(76.507568%, 2.755737%, 2.404785%)" offset="0.5625"/><stop stop-opacity="1" stop-color="rgb(76.716614%, 2.729797%, 2.383423%)" offset="0.566406"/><stop stop-opacity="1" stop-color="rgb(76.927185%, 2.705383%, 2.362061%)" offset="0.570312"/><stop stop-opacity="1" stop-color="rgb(77.13623%, 2.680969%, 2.340698%)" offset="0.574219"/><stop stop-opacity="1" stop-color="rgb(77.346802%, 2.656555%, 2.319336%)" offset="0.578125"/><stop stop-opacity="1" stop-color="rgb(77.555847%, 2.632141%, 2.297974%)" offset="0.582031"/><stop stop-opacity="1" stop-color="rgb(77.766418%, 2.607727%, 2.276611%)" offset="0.585937"/><stop stop-opacity="1" stop-color="rgb(77.975464%, 2.583313%, 2.255249%)" offset="0.589844"/><stop stop-opacity="1" stop-color="rgb(78.186035%, 2.558899%, 2.233887%)" offset="0.59375"/><stop stop-opacity="1" stop-color="rgb(78.395081%, 2.532959%, 2.212524%)" offset="0.597656"/><stop stop-opacity="1" stop-color="rgb(78.605652%, 2.508545%, 2.191162%)" offset="0.601563"/><stop stop-opacity="1" stop-color="rgb(78.814697%, 2.484131%, 2.168274%)" offset="0.605469"/><stop stop-opacity="1" stop-color="rgb(79.025269%, 2.459717%, 2.146912%)" offset="0.609375"/><stop stop-opacity="1" stop-color="rgb(79.234314%, 2.435303%, 2.125549%)" offset="0.613281"/><stop stop-opacity="1" stop-color="rgb(79.444885%, 2.410889%, 2.104187%)" offset="0.617188"/><stop stop-opacity="1" stop-color="rgb(79.653931%, 2.386475%, 2.082825%)" offset="0.621094"/><stop stop-opacity="1" stop-color="rgb(79.864502%, 2.362061%, 2.061462%)" offset="0.625"/><stop stop-opacity="1" stop-color="rgb(80.073547%, 2.336121%, 2.0401%)" offset="0.628906"/><stop stop-opacity="1" stop-color="rgb(80.284119%, 2.311707%, 2.018738%)" offset="0.632812"/><stop stop-opacity="1" stop-color="rgb(80.493164%, 2.287292%, 1.997375%)" offset="0.636719"/><stop stop-opacity="1" stop-color="rgb(80.703735%, 2.262878%, 1.976013%)" offset="0.640625"/><stop stop-opacity="1" stop-color="rgb(80.912781%, 2.238464%, 1.953125%)" offset="0.644531"/><stop stop-opacity="1" stop-color="rgb(81.123352%, 2.21405%, 1.931763%)" offset="0.648438"/><stop stop-opacity="1" stop-color="rgb(81.332397%, 2.189636%, 1.9104%)" offset="0.652344"/><stop stop-opacity="1" stop-color="rgb(81.542969%, 2.165222%, 1.889038%)" offset="0.65625"/><stop stop-opacity="1" stop-color="rgb(81.752014%, 2.139282%, 1.867676%)" offset="0.660156"/><stop stop-opacity="1" stop-color="rgb(81.962585%, 2.114868%, 1.846313%)" offset="0.664062"/><stop stop-opacity="1" stop-color="rgb(82.171631%, 2.090454%, 1.824951%)" offset="0.667969"/><stop stop-opacity="1" stop-color="rgb(82.382202%, 2.06604%, 1.803589%)" offset="0.671875"/><stop stop-opacity="1" stop-color="rgb(82.591248%, 2.041626%, 1.782227%)" offset="0.675781"/><stop stop-opacity="1" stop-color="rgb(82.801819%, 2.017212%, 1.760864%)" offset="0.679687"/><stop stop-opacity="1" stop-color="rgb(83.010864%, 1.991272%, 1.739502%)" offset="0.683594"/><stop stop-opacity="1" stop-color="rgb(83.221436%, 1.966858%, 1.71814%)" offset="0.6875"/><stop stop-opacity="1" stop-color="rgb(83.430481%, 1.942444%, 1.695251%)" offset="0.691406"/><stop stop-opacity="1" stop-color="rgb(83.641052%, 1.91803%, 1.673889%)" offset="0.695313"/><stop stop-opacity="1" stop-color="rgb(83.850098%, 1.893616%, 1.652527%)" offset="0.699219"/><stop stop-opacity="1" stop-color="rgb(84.060669%, 1.869202%, 1.631165%)" offset="0.703125"/><stop stop-opacity="1" stop-color="rgb(84.27124%, 1.844788%, 1.609802%)" offset="0.707031"/><stop stop-opacity="1" stop-color="rgb(84.481812%, 1.820374%, 1.58844%)" offset="0.710938"/><stop stop-opacity="1" stop-color="rgb(84.690857%, 1.794434%, 1.567078%)" offset="0.714844"/><stop stop-opacity="1" stop-color="rgb(84.901428%, 1.77002%, 1.545715%)" offset="0.71875"/><stop stop-opacity="1" stop-color="rgb(85.110474%, 1.745605%, 1.524353%)" offset="0.722656"/><stop stop-opacity="1" stop-color="rgb(85.321045%, 1.721191%, 1.502991%)" offset="0.726562"/><stop stop-opacity="1" stop-color="rgb(85.53009%, 1.696777%, 1.481628%)" offset="0.730469"/><stop stop-opacity="1" stop-color="rgb(85.740662%, 1.672363%, 1.460266%)" offset="0.734375"/><stop stop-opacity="1" stop-color="rgb(85.949707%, 1.647949%, 1.437378%)" offset="0.738281"/><stop stop-opacity="1" stop-color="rgb(86.160278%, 1.623535%, 1.416016%)" offset="0.742188"/><stop stop-opacity="1" stop-color="rgb(86.369324%, 1.597595%, 1.394653%)" offset="0.746094"/><stop stop-opacity="1" stop-color="rgb(86.579895%, 1.573181%, 1.373291%)" offset="0.75"/><stop stop-opacity="1" stop-color="rgb(86.78894%, 1.548767%, 1.351929%)" offset="0.753906"/><stop stop-opacity="1" stop-color="rgb(86.999512%, 1.524353%, 1.330566%)" offset="0.757812"/><stop stop-opacity="1" stop-color="rgb(87.208557%, 1.499939%, 1.309204%)" offset="0.761719"/><stop stop-opacity="1" stop-color="rgb(87.419128%, 1.475525%, 1.287842%)" offset="0.765625"/><stop stop-opacity="1" stop-color="rgb(87.628174%, 1.449585%, 1.266479%)" offset="0.769531"/><stop stop-opacity="1" stop-color="rgb(87.838745%, 1.425171%, 1.245117%)" offset="0.773438"/><stop stop-opacity="1" stop-color="rgb(88.047791%, 1.400757%, 1.223755%)" offset="0.777344"/><stop stop-opacity="1" stop-color="rgb(88.258362%, 1.376343%, 1.202393%)" offset="0.78125"/><stop stop-opacity="1" stop-color="rgb(88.467407%, 1.351929%, 1.179504%)" offset="0.785156"/><stop stop-opacity="1" stop-color="rgb(88.677979%, 1.327515%, 1.158142%)" offset="0.789063"/><stop stop-opacity="1" stop-color="rgb(88.887024%, 1.303101%, 1.13678%)" offset="0.792969"/><stop stop-opacity="1" stop-color="rgb(89.097595%, 1.278687%, 1.115417%)" offset="0.796875"/><stop stop-opacity="1" stop-color="rgb(89.306641%, 1.252747%, 1.094055%)" offset="0.800781"/><stop stop-opacity="1" stop-color="rgb(89.517212%, 1.228333%, 1.072693%)" offset="0.804688"/><stop stop-opacity="1" stop-color="rgb(89.726257%, 1.203918%, 1.051331%)" offset="0.808594"/><stop stop-opacity="1" stop-color="rgb(89.936829%, 1.179504%, 1.029968%)" offset="0.8125"/><stop stop-opacity="1" stop-color="rgb(90.145874%, 1.15509%, 1.008606%)" offset="0.816406"/><stop stop-opacity="1" stop-color="rgb(90.356445%, 1.130676%, 0.987244%)" offset="0.820312"/><stop stop-opacity="1" stop-color="rgb(90.565491%, 1.106262%, 0.965881%)" offset="0.824219"/><stop stop-opacity="1" stop-color="rgb(90.776062%, 1.081848%, 0.944519%)" offset="0.828125"/><stop stop-opacity="1" stop-color="rgb(90.985107%, 1.055908%, 0.921631%)" offset="0.832031"/><stop stop-opacity="1" stop-color="rgb(91.195679%, 1.031494%, 0.900269%)" offset="0.835938"/><stop stop-opacity="1" stop-color="rgb(91.404724%, 1.00708%, 0.878906%)" offset="0.839844"/><stop stop-opacity="1" stop-color="rgb(91.615295%, 0.982666%, 0.857544%)" offset="0.84375"/><stop stop-opacity="1" stop-color="rgb(91.824341%, 0.958252%, 0.836182%)" offset="0.847656"/><stop stop-opacity="1" stop-color="rgb(92.034912%, 0.933838%, 0.814819%)" offset="0.851562"/><stop stop-opacity="1" stop-color="rgb(92.243958%, 0.909424%, 0.793457%)" offset="0.855469"/><stop stop-opacity="1" stop-color="rgb(92.454529%, 0.88501%, 0.772095%)" offset="0.859375"/><stop stop-opacity="1" stop-color="rgb(92.6651%, 0.85907%, 0.750732%)" offset="0.863281"/><stop stop-opacity="1" stop-color="rgb(92.875671%, 0.834656%, 0.72937%)" offset="0.867188"/><stop stop-opacity="1" stop-color="rgb(93.084717%, 0.810242%, 0.708008%)" offset="0.871094"/><stop stop-opacity="1" stop-color="rgb(93.295288%, 0.785828%, 0.686646%)" offset="0.875"/><stop stop-opacity="1" stop-color="rgb(93.504333%, 0.761414%, 0.663757%)" offset="0.878906"/><stop stop-opacity="1" stop-color="rgb(93.714905%, 0.737%, 0.642395%)" offset="0.882813"/><stop stop-opacity="1" stop-color="rgb(93.92395%, 0.71106%, 0.621033%)" offset="0.886719"/><stop stop-opacity="1" stop-color="rgb(94.134521%, 0.686646%, 0.59967%)" offset="0.890625"/><stop stop-opacity="1" stop-color="rgb(94.343567%, 0.662231%, 0.578308%)" offset="0.894531"/><stop stop-opacity="1" stop-color="rgb(94.554138%, 0.637817%, 0.556946%)" offset="0.898438"/><stop stop-opacity="1" stop-color="rgb(94.763184%, 0.613403%, 0.535583%)" offset="0.902344"/><stop stop-opacity="1" stop-color="rgb(94.973755%, 0.588989%, 0.514221%)" offset="0.90625"/><stop stop-opacity="1" stop-color="rgb(95.1828%, 0.564575%, 0.492859%)" offset="0.910156"/><stop stop-opacity="1" stop-color="rgb(95.393372%, 0.540161%, 0.471497%)" offset="0.914062"/><stop stop-opacity="1" stop-color="rgb(95.602417%, 0.514221%, 0.450134%)" offset="0.917969"/><stop stop-opacity="1" stop-color="rgb(95.812988%, 0.489807%, 0.428772%)" offset="0.921875"/><stop stop-opacity="1" stop-color="rgb(96.022034%, 0.465393%, 0.405884%)" offset="0.925781"/><stop stop-opacity="1" stop-color="rgb(96.232605%, 0.440979%, 0.384521%)" offset="0.929688"/><stop stop-opacity="1" stop-color="rgb(96.44165%, 0.416565%, 0.363159%)" offset="0.933594"/><stop stop-opacity="1" stop-color="rgb(96.652222%, 0.392151%, 0.341797%)" offset="0.9375"/><stop stop-opacity="1" stop-color="rgb(96.861267%, 0.367737%, 0.320435%)" offset="0.941406"/><stop stop-opacity="1" stop-color="rgb(97.071838%, 0.343323%, 0.299072%)" offset="0.945312"/><stop stop-opacity="1" stop-color="rgb(97.280884%, 0.317383%, 0.27771%)" offset="0.949219"/><stop stop-opacity="1" stop-color="rgb(97.491455%, 0.292969%, 0.256348%)" offset="0.953125"/><stop stop-opacity="1" stop-color="rgb(97.7005%, 0.268555%, 0.234985%)" offset="0.957031"/><stop stop-opacity="1" stop-color="rgb(97.911072%, 0.244141%, 0.213623%)" offset="0.960938"/><stop stop-opacity="1" stop-color="rgb(98.120117%, 0.219727%, 0.190735%)" offset="0.964844"/><stop stop-opacity="1" stop-color="rgb(98.330688%, 0.195312%, 0.169373%)" offset="0.96875"/><stop stop-opacity="1" stop-color="rgb(98.539734%, 0.169373%, 0.14801%)" offset="0.972656"/><stop stop-opacity="1" stop-color="rgb(98.750305%, 0.144958%, 0.126648%)" offset="0.976563"/><stop stop-opacity="1" stop-color="rgb(98.959351%, 0.120544%, 0.105286%)" offset="0.980469"/><stop stop-opacity="1" stop-color="rgb(99.169922%, 0.0961304%, 0.0839233%)" offset="0.984375"/><stop stop-opacity="1" stop-color="rgb(99.378967%, 0.0717163%, 0.062561%)" offset="0.988281"/><stop stop-opacity="1" stop-color="rgb(99.589539%, 0.0473022%, 0.0411987%)" offset="0.992188"/><stop stop-opacity="1" stop-color="rgb(99.794006%, 0.0228882%, 0.0198364%)" offset="0.996094"/><stop stop-opacity="1" stop-color="rgb(100%, 0%, 0%)" offset="1"/></linearGradient><clipPath id="868e427b3d"><path d="M 16 5 L 35.023438 5 L 35.023438 36 L 16 36 Z M 16 5 " clip-rule="nonzero"/></clipPath><clipPath id="41f306c667"><path d="M 35.015625 13.0625 C 35.015625 14.882812 35.015625 16.707031 35.015625 18.53125 C 35.011719 20.386719 34.628906 22.167969 33.980469 23.894531 C 33.210938 25.957031 32.054688 27.785156 30.644531 29.460938 C 29.683594 30.597656 28.636719 31.644531 27.503906 32.601562 C 26.554688 33.402344 25.566406 34.160156 24.585938 34.925781 C 24.226562 35.207031 23.902344 35.128906 23.714844 34.707031 C 23.214844 33.597656 22.730469 32.480469 22.257812 31.359375 C 20.996094 28.378906 19.738281 25.398438 18.484375 22.414062 C 18.0625 21.417969 17.644531 20.421875 17.222656 19.421875 C 17.15625 19.265625 17.089844 19.105469 17.039062 18.941406 C 16.914062 18.53125 17 18.246094 17.332031 17.984375 C 18.449219 17.097656 19.566406 16.210938 20.683594 15.332031 C 22.613281 13.816406 24.539062 12.296875 26.476562 10.792969 C 28.519531 9.203125 30.574219 7.632812 32.625 6.054688 C 32.988281 5.773438 33.367188 5.703125 33.777344 5.9375 C 33.871094 5.992188 33.964844 6.054688 34.066406 6.082031 C 34.84375 6.3125 35.039062 6.851562 35.019531 7.617188 C 34.980469 9.433594 35.007812 11.246094 35.007812 13.0625 Z M 35.015625 13.0625 " clip-rule="nonzero"/></clipPath><linearGradient x1="716.95001" gradientTransform="matrix(0.0266489, 0, 0, 0.026879, 6.897232, 0.00729671)" y1="211.840015" x2="716.95001" gradientUnits="userSpaceOnUse" y2="1309.519969" id="c3de31eef0"><stop stop-opacity="1" stop-color="rgb(6.253052%, 47.840881%, 78.399658%)" offset="0"/><stop stop-opacity="1" stop-color="rgb(6.236267%, 47.709656%, 78.399658%)" offset="0.015625"/><stop stop-opacity="1" stop-color="rgb(6.204224%, 47.450256%, 78.399658%)" offset="0.03125"/><stop stop-opacity="1" stop-color="rgb(6.170654%, 47.189331%, 78.399658%)" offset="0.046875"/><stop stop-opacity="1" stop-color="rgb(6.137085%, 46.929932%, 78.399658%)" offset="0.0625"/><stop stop-opacity="1" stop-color="rgb(6.103516%, 46.669006%, 78.399658%)" offset="0.078125"/><stop stop-opacity="1" stop-color="rgb(6.071472%, 46.409607%, 78.399658%)" offset="0.09375"/><stop stop-opacity="1" stop-color="rgb(6.037903%, 46.150208%, 78.399658%)" offset="0.109375"/><stop stop-opacity="1" stop-color="rgb(6.004333%, 45.889282%, 78.399658%)" offset="0.125"/><stop stop-opacity="1" stop-color="rgb(5.97229%, 45.629883%, 78.399658%)" offset="0.140625"/><stop stop-opacity="1" stop-color="rgb(5.938721%, 45.368958%, 78.399658%)" offset="0.15625"/><stop stop-opacity="1" stop-color="rgb(5.905151%, 45.109558%, 78.399658%)" offset="0.171875"/><stop stop-opacity="1" stop-color="rgb(5.871582%, 44.848633%, 78.399658%)" offset="0.1875"/><stop stop-opacity="1" stop-color="rgb(5.839539%, 44.589233%, 78.399658%)" offset="0.203125"/><stop stop-opacity="1" stop-color="rgb(5.805969%, 44.329834%, 78.399658%)" offset="0.21875"/><stop stop-opacity="1" stop-color="rgb(5.7724%, 44.068909%, 78.399658%)" offset="0.234375"/><stop stop-opacity="1" stop-color="rgb(5.740356%, 43.809509%, 78.399658%)" offset="0.25"/><stop stop-opacity="1" stop-color="rgb(5.706787%, 43.548584%, 78.399658%)" offset="0.265625"/><stop stop-opacity="1" stop-color="rgb(5.673218%, 43.289185%, 78.399658%)" offset="0.28125"/><stop stop-opacity="1" stop-color="rgb(5.639648%, 43.028259%, 78.399658%)" offset="0.296875"/><stop stop-opacity="1" stop-color="rgb(5.607605%, 42.76886%, 78.399658%)" offset="0.3125"/><stop stop-opacity="1" stop-color="rgb(5.574036%, 42.507935%, 78.399658%)" offset="0.328125"/><stop stop-opacity="1" stop-color="rgb(5.540466%, 42.248535%, 78.399658%)" offset="0.34375"/><stop stop-opacity="1" stop-color="rgb(5.508423%, 41.989136%, 78.399658%)" offset="0.359375"/><stop stop-opacity="1" stop-color="rgb(5.474854%, 41.72821%, 78.399658%)" offset="0.375"/><stop stop-opacity="1" stop-color="rgb(5.441284%, 41.468811%, 78.399658%)" offset="0.390625"/><stop stop-opacity="1" stop-color="rgb(5.409241%, 41.207886%, 78.399658%)" offset="0.40625"/><stop stop-opacity="1" stop-color="rgb(5.375671%, 40.948486%, 78.399658%)" offset="0.421875"/><stop stop-opacity="1" stop-color="rgb(5.342102%, 40.687561%, 78.399658%)" offset="0.4375"/><stop stop-opacity="1" stop-color="rgb(5.308533%, 40.428162%, 78.399658%)" offset="0.453125"/><stop stop-opacity="1" stop-color="rgb(5.276489%, 40.168762%, 78.399658%)" offset="0.46875"/><stop stop-opacity="1" stop-color="rgb(5.24292%, 39.907837%, 78.399658%)" offset="0.484375"/><stop stop-opacity="1" stop-color="rgb(5.209351%, 39.648438%, 78.399658%)" offset="0.5"/><stop stop-opacity="1" stop-color="rgb(5.177307%, 39.387512%, 78.399658%)" offset="0.515625"/><stop stop-opacity="1" stop-color="rgb(5.143738%, 39.128113%, 78.399658%)" offset="0.53125"/><stop stop-opacity="1" stop-color="rgb(5.110168%, 38.867188%, 78.399658%)" offset="0.546875"/><stop stop-opacity="1" stop-color="rgb(5.076599%, 38.607788%, 78.399658%)" offset="0.5625"/><stop stop-opacity="1" stop-color="rgb(5.044556%, 38.346863%, 78.399658%)" offset="0.578125"/><stop stop-opacity="1" stop-color="rgb(5.010986%, 38.087463%, 78.399658%)" offset="0.59375"/><stop stop-opacity="1" stop-color="rgb(4.977417%, 37.828064%, 78.399658%)" offset="0.609375"/><stop stop-opacity="1" stop-color="rgb(4.945374%, 37.567139%, 78.399658%)" offset="0.625"/><stop stop-opacity="1" stop-color="rgb(4.911804%, 37.307739%, 78.399658%)" offset="0.640625"/><stop stop-opacity="1" stop-color="rgb(4.878235%, 37.046814%, 78.399658%)" offset="0.65625"/><stop stop-opacity="1" stop-color="rgb(4.844666%, 36.787415%, 78.399658%)" offset="0.671875"/><stop stop-opacity="1" stop-color="rgb(4.812622%, 36.526489%, 78.399658%)" offset="0.6875"/><stop stop-opacity="1" stop-color="rgb(4.779053%, 36.26709%, 78.399658%)" offset="0.703125"/><stop stop-opacity="1" stop-color="rgb(4.745483%, 36.006165%, 78.399658%)" offset="0.71875"/><stop stop-opacity="1" stop-color="rgb(4.71344%, 35.746765%, 78.399658%)" offset="0.734375"/><stop stop-opacity="1" stop-color="rgb(4.679871%, 35.487366%, 78.399658%)" offset="0.75"/><stop stop-opacity="1" stop-color="rgb(4.646301%, 35.22644%, 78.399658%)" offset="0.765625"/><stop stop-opacity="1" stop-color="rgb(4.612732%, 34.967041%, 78.399658%)" offset="0.78125"/><stop stop-opacity="1" stop-color="rgb(4.580688%, 34.706116%, 78.399658%)" offset="0.796875"/><stop stop-opacity="1" stop-color="rgb(4.547119%, 34.446716%, 78.399658%)" offset="0.8125"/><stop stop-opacity="1" stop-color="rgb(4.51355%, 34.185791%, 78.399658%)" offset="0.828125"/><stop stop-opacity="1" stop-color="rgb(4.481506%, 33.926392%, 78.399658%)" offset="0.84375"/><stop stop-opacity="1" stop-color="rgb(4.447937%, 33.666992%, 78.399658%)" offset="0.859375"/><stop stop-opacity="1" stop-color="rgb(4.414368%, 33.406067%, 78.399658%)" offset="0.875"/><stop stop-opacity="1" stop-color="rgb(4.380798%, 33.146667%, 78.399658%)" offset="0.890625"/><stop stop-opacity="1" stop-color="rgb(4.348755%, 32.885742%, 78.399658%)" offset="0.90625"/><stop stop-opacity="1" stop-color="rgb(4.315186%, 32.627869%, 78.399658%)" offset="0.9375"/><stop stop-opacity="1" stop-color="rgb(4.299927%, 32.499695%, 78.399658%)" offset="1"/></linearGradient></defs><g fill="#000000" fill-opacity="1"><g transform="translate(43.782653, 24.949741)"><g><path d="M 3.90625 -7.890625 C 3.90625 -6.191406 4.28125 -4.863281 5.03125 -3.90625 C 5.820312 -2.96875 6.878906 -2.5 8.203125 -2.5 C 9.535156 -2.5 10.609375 -2.96875 11.421875 -3.90625 C 12.179688 -4.8125 12.5625 -6.140625 12.5625 -7.890625 C 12.5625 -9.585938 12.179688 -10.90625 11.421875 -11.84375 C 10.640625 -12.769531 9.566406 -13.234375 8.203125 -13.234375 C 6.847656 -13.234375 5.789062 -12.769531 5.03125 -11.84375 C 4.28125 -10.875 3.90625 -9.554688 3.90625 -7.890625 Z M 0.6875 -7.890625 C 0.6875 -10.398438 1.363281 -12.378906 2.71875 -13.828125 C 4.113281 -15.304688 5.941406 -16.046875 8.203125 -16.046875 C 10.503906 -16.046875 12.347656 -15.304688 13.734375 -13.828125 C 15.097656 -12.316406 15.78125 -10.335938 15.78125 -7.890625 C 15.78125 -5.378906 15.097656 -3.398438 13.734375 -1.953125 C 12.410156 -0.492188 10.566406 0.234375 8.203125 0.234375 C 5.847656 0.234375 4.019531 -0.492188 2.71875 -1.953125 C 1.363281 -3.398438 0.6875 -5.378906 0.6875 -7.890625 Z M 0.6875 -7.890625 "/></g></g></g><g fill="#000000" fill-opacity="1"><g transform="translate(60.334049, 24.949741)"><g><path d="M 0.8125 0 L 0.8125 -14.109375 C 0.8125 -14.554688 0.976562 -14.945312 1.3125 -15.28125 C 1.613281 -15.613281 1.992188 -15.78125 2.453125 -15.78125 L 8.25 -15.78125 C 9.851562 -15.78125 11.078125 -15.445312 11.921875 -14.78125 C 12.773438 -14.082031 13.203125 -13.085938 13.203125 -11.796875 C 13.203125 -11.066406 13.050781 -10.398438 12.75 -9.796875 C 12.445312 -9.285156 11.960938 -8.863281 11.296875 -8.53125 C 12.140625 -8.195312 12.757812 -7.726562 13.15625 -7.125 C 13.539062 -6.550781 13.734375 -5.78125 13.734375 -4.8125 C 13.734375 -3.269531 13.238281 -2.085938 12.25 -1.265625 C 11.25 -0.421875 9.828125 0 7.984375 0 Z M 3.984375 -9.65625 L 7.625 -9.65625 C 8.28125 -9.65625 8.867188 -9.789062 9.390625 -10.0625 C 9.753906 -10.363281 9.9375 -10.800781 9.9375 -11.375 C 9.9375 -11.957031 9.753906 -12.382812 9.390625 -12.65625 C 9.023438 -12.925781 8.421875 -13.0625 7.578125 -13.0625 L 3.984375 -13.0625 Z M 3.984375 -2.859375 L 7.75 -2.859375 C 8.625 -2.859375 9.289062 -3.023438 9.75 -3.359375 C 10.144531 -3.660156 10.34375 -4.171875 10.34375 -4.890625 C 10.34375 -5.617188 10.144531 -6.148438 9.75 -6.484375 C 9.289062 -6.816406 8.609375 -6.984375 7.703125 -6.984375 L 3.984375 -6.984375 Z M 3.984375 -2.859375 "/></g></g></g><g fill="#000000" fill-opacity="1"><g transform="translate(74.75417, 24.949741)"><g><path d="M 1.046875 -4.9375 L 4.171875 -4.9375 C 4.296875 -3.28125 5.382812 -2.453125 7.4375 -2.453125 C 9.488281 -2.453125 10.5 -3.101562 10.46875 -4.40625 C 10.46875 -5.15625 9.988281 -5.664062 9.03125 -5.9375 C 8.09375 -6.207031 7.046875 -6.492188 5.890625 -6.796875 C 2.804688 -7.585938 1.265625 -9.023438 1.265625 -11.109375 C 1.328125 -14.429688 3.304688 -16.078125 7.203125 -16.046875 C 10.921875 -16.046875 12.875 -14.414062 13.0625 -11.15625 L 11.25 -11.15625 C 10.582031 -11.15625 10.097656 -11.457031 9.796875 -12.0625 C 9.253906 -12.96875 8.300781 -13.421875 6.9375 -13.421875 C 5.269531 -13.390625 4.410156 -12.769531 4.359375 -11.5625 C 4.359375 -10.5625 5.382812 -9.835938 7.4375 -9.390625 C 8.613281 -9.117188 9.867188 -8.753906 11.203125 -8.296875 C 12.953125 -7.691406 13.785156 -6.394531 13.703125 -4.40625 C 13.515625 -1.3125 11.425781 0.234375 7.4375 0.234375 C 3.257812 0.234375 1.128906 -1.488281 1.046875 -4.9375 Z M 1.046875 -4.9375 "/></g></g></g><g fill="#000000" fill-opacity="1"><g transform="translate(89.219637, 24.949741)"><g><path d="M 0.8125 0 L 0.8125 -14.109375 C 0.8125 -15.222656 1.359375 -15.78125 2.453125 -15.78125 L 4.03125 -15.78125 L 4.03125 0 Z M 0.8125 0 "/></g></g></g><g fill="#000000" fill-opacity="1"><g transform="translate(94.07169, 24.949741)"><g><path d="M 0.8125 0 L 0.8125 -14.109375 C 0.8125 -15.191406 1.359375 -15.75 2.453125 -15.78125 L 6.984375 -15.78125 C 9.398438 -15.78125 11.195312 -15.128906 12.375 -13.828125 C 13.582031 -12.472656 14.1875 -10.492188 14.1875 -7.890625 C 14.1875 -6.441406 13.960938 -5.171875 13.515625 -4.078125 C 13.054688 -2.992188 12.421875 -2.101562 11.609375 -1.40625 C 10.972656 -0.894531 10.265625 -0.53125 9.484375 -0.3125 C 8.691406 -0.101562 7.570312 0 6.125 0 Z M 3.984375 -2.859375 L 6.578125 -2.859375 C 8.085938 -2.859375 9.175781 -3.25 9.84375 -4.03125 C 10.539062 -4.820312 10.890625 -6.109375 10.890625 -7.890625 C 10.890625 -9.640625 10.570312 -10.925781 9.9375 -11.75 C 9.300781 -12.59375 8.316406 -13.015625 6.984375 -13.015625 L 3.984375 -13.015625 Z M 3.984375 -2.859375 "/></g></g></g><g fill="#000000" fill-opacity="1"><g transform="translate(108.945274, 24.949741)"><g><path d="M 0.8125 0 L 0.8125 -14.109375 C 0.8125 -15.222656 1.359375 -15.78125 2.453125 -15.78125 L 4.03125 -15.78125 L 4.03125 0 Z M 0.8125 0 "/></g></g></g><g fill="#000000" fill-opacity="1"><g transform="translate(113.797327, 24.949741)"><g><path d="M 7.578125 -15.78125 L 10.15625 -15.78125 L 15.828125 0 L 12.421875 0 L 11.375 -3.21875 L 5.265625 -3.21875 L 4.21875 0 L 0.765625 0 L 6.03125 -14.734375 C 6.269531 -15.429688 6.785156 -15.78125 7.578125 -15.78125 Z M 8.296875 -12.609375 L 6.125 -5.890625 L 10.46875 -5.890625 Z M 8.296875 -12.609375 "/></g></g></g><g fill="#000000" fill-opacity="1"><g transform="translate(130.394069, 24.949741)"><g><path d="M 0.859375 0 L 0.859375 -14.109375 C 0.859375 -14.554688 1.023438 -14.945312 1.359375 -15.28125 C 1.660156 -15.613281 2.039062 -15.78125 2.5 -15.78125 L 4.21875 -15.78125 L 10.65625 -4.9375 L 10.65625 -15.78125 L 13.828125 -15.78125 L 13.828125 0 L 10.46875 0 L 4.03125 -10.84375 L 4.03125 0 Z M 0.859375 0 "/></g></g></g><g fill="#000000" fill-opacity="1"><g transform="translate(145.131614, 24.949741)"><g><path d="M 14.78125 -5.484375 C 14.632812 -3.671875 13.957031 -2.265625 12.75 -1.265625 C 11.5625 -0.265625 9.957031 0.234375 7.9375 0.234375 C 5.601562 0.234375 3.816406 -0.460938 2.578125 -1.859375 C 1.316406 -3.304688 0.6875 -5.316406 0.6875 -7.890625 C 0.6875 -10.523438 1.332031 -12.535156 2.625 -13.921875 C 3.894531 -15.335938 5.753906 -16.046875 8.203125 -16.046875 C 10.140625 -16.046875 11.695312 -15.566406 12.875 -14.609375 C 14 -13.609375 14.632812 -12.242188 14.78125 -10.515625 L 12.828125 -10.515625 C 12.140625 -10.515625 11.644531 -10.832031 11.34375 -11.46875 C 10.789062 -12.625 9.742188 -13.203125 8.203125 -13.203125 C 6.847656 -13.203125 5.773438 -12.75 4.984375 -11.84375 C 4.265625 -10.925781 3.90625 -9.609375 3.90625 -7.890625 C 3.90625 -6.191406 4.265625 -4.890625 4.984375 -3.984375 C 5.710938 -3.078125 6.757812 -2.625 8.125 -2.625 C 9.050781 -2.625 9.832031 -2.867188 10.46875 -3.359375 C 11.070312 -3.867188 11.46875 -4.578125 11.65625 -5.484375 Z M 14.78125 -5.484375 "/></g></g></g><g fill="#000000" fill-opacity="1"><g transform="translate(160.685392, 24.949741)"><g><path d="M 3.90625 -7.890625 C 3.90625 -6.191406 4.28125 -4.863281 5.03125 -3.90625 C 5.820312 -2.96875 6.878906 -2.5 8.203125 -2.5 C 9.535156 -2.5 10.609375 -2.96875 11.421875 -3.90625 C 12.179688 -4.8125 12.5625 -6.140625 12.5625 -7.890625 C 12.5625 -9.585938 12.179688 -10.90625 11.421875 -11.84375 C 10.640625 -12.769531 9.566406 -13.234375 8.203125 -13.234375 C 6.847656 -13.234375 5.789062 -12.769531 5.03125 -11.84375 C 4.28125 -10.875 3.90625 -9.554688 3.90625 -7.890625 Z M 0.6875 -7.890625 C 0.6875 -10.398438 1.363281 -12.378906 2.71875 -13.828125 C 4.113281 -15.304688 5.941406 -16.046875 8.203125 -16.046875 C 10.503906 -16.046875 12.347656 -15.304688 13.734375 -13.828125 C 15.097656 -12.316406 15.78125 -10.335938 15.78125 -7.890625 C 15.78125 -5.378906 15.097656 -3.398438 13.734375 -1.953125 C 12.410156 -0.492188 10.566406 0.234375 8.203125 0.234375 C 5.847656 0.234375 4.019531 -0.492188 2.71875 -1.953125 C 1.363281 -3.398438 0.6875 -5.378906 0.6875 -7.890625 Z M 0.6875 -7.890625 "/></g></g></g><g fill="#000000" fill-opacity="1"><g transform="translate(177.236789, 24.949741)"><g><path d="M 0.8125 0 L 0.8125 -14.109375 C 0.8125 -14.554688 0.976562 -14.945312 1.3125 -15.28125 C 1.613281 -15.613281 1.992188 -15.78125 2.453125 -15.78125 L 8.4375 -15.78125 C 10.125 -15.78125 11.410156 -15.414062 12.296875 -14.6875 C 13.109375 -13.96875 13.515625 -12.835938 13.515625 -11.296875 C 13.515625 -10.296875 13.316406 -9.492188 12.921875 -8.890625 C 12.503906 -8.222656 11.914062 -7.785156 11.15625 -7.578125 C 11.820312 -7.328125 12.320312 -6.960938 12.65625 -6.484375 C 12.925781 -5.941406 13.09375 -5.15625 13.15625 -4.125 L 13.28125 -1.046875 C 13.3125 -0.554688 13.476562 -0.207031 13.78125 0 L 10.25 0 C 10.09375 -0.300781 10.003906 -0.617188 9.984375 -0.953125 C 9.921875 -1.191406 9.875 -2.082031 9.84375 -3.625 C 9.78125 -4.625 9.597656 -5.289062 9.296875 -5.625 C 8.960938 -5.957031 8.359375 -6.125 7.484375 -6.125 L 4.03125 -6.125 L 4.03125 0 Z M 4.03125 -8.890625 L 7.84375 -8.890625 C 8.632812 -8.890625 9.253906 -9.054688 9.703125 -9.390625 C 10.066406 -9.753906 10.25 -10.28125 10.25 -10.96875 C 10.25 -11.664062 10.066406 -12.179688 9.703125 -12.515625 C 9.335938 -12.878906 8.78125 -13.0625 8.03125 -13.0625 L 4.03125 -13.0625 Z M 4.03125 -8.890625 "/></g></g></g><g fill="#000000" fill-opacity="1"><g transform="translate(191.747602, 24.949741)"><g><path d="M 4.03125 -5.625 L 4.03125 0 L 0.8125 0 L 0.8125 -14.109375 C 0.8125 -14.554688 0.976562 -14.945312 1.3125 -15.28125 C 1.613281 -15.613281 1.992188 -15.78125 2.453125 -15.78125 L 7.796875 -15.78125 C 9.460938 -15.78125 10.71875 -15.359375 11.5625 -14.515625 C 12.4375 -13.640625 12.875 -12.367188 12.875 -10.703125 C 12.875 -9.128906 12.453125 -7.875 11.609375 -6.9375 C 10.765625 -6.0625 9.570312 -5.625 8.03125 -5.625 Z M 4.078125 -8.484375 L 7.203125 -8.484375 C 8.835938 -8.453125 9.65625 -9.207031 9.65625 -10.75 C 9.65625 -12.289062 8.898438 -13.0625 7.390625 -13.0625 L 4.078125 -13.0625 Z M 4.078125 -8.484375 "/></g></g></g><g fill="#000000" fill-opacity="1"><g transform="translate(205.260797, 24.949741)"><g><path d="M 1.046875 -4.9375 L 4.171875 -4.9375 C 4.296875 -3.28125 5.382812 -2.453125 7.4375 -2.453125 C 9.488281 -2.453125 10.5 -3.101562 10.46875 -4.40625 C 10.46875 -5.15625 9.988281 -5.664062 9.03125 -5.9375 C 8.09375 -6.207031 7.046875 -6.492188 5.890625 -6.796875 C 2.804688 -7.585938 1.265625 -9.023438 1.265625 -11.109375 C 1.328125 -14.429688 3.304688 -16.078125 7.203125 -16.046875 C 10.921875 -16.046875 12.875 -14.414062 13.0625 -11.15625 L 11.25 -11.15625 C 10.582031 -11.15625 10.097656 -11.457031 9.796875 -12.0625 C 9.253906 -12.96875 8.300781 -13.421875 6.9375 -13.421875 C 5.269531 -13.390625 4.410156 -12.769531 4.359375 -11.5625 C 4.359375 -10.5625 5.382812 -9.835938 7.4375 -9.390625 C 8.613281 -9.117188 9.867188 -8.753906 11.203125 -8.296875 C 12.953125 -7.691406 13.785156 -6.394531 13.703125 -4.40625 C 13.515625 -1.3125 11.425781 0.234375 7.4375 0.234375 C 3.257812 0.234375 1.128906 -1.488281 1.046875 -4.9375 Z M 1.046875 -4.9375 "/></g></g></g><g clip-path="url(#78b00237b4)"><g clip-path="url(#5a78d0074b)"><path fill="url(#c1d0a2c9b0)" d="M 6.898438 0 L 6.898438 37.007812 L 31.246094 37.007812 L 31.246094 0 Z M 6.898438 0 " fill-rule="nonzero"/></g></g><g clip-path="url(#868e427b3d)"><g clip-path="url(#41f306c667)"><path fill="url(#c3de31eef0)" d="M 16.914062 5.703125 L 16.914062 35.207031 L 35.023438 35.207031 L 35.023438 5.703125 Z M 16.914062 5.703125 " fill-rule="nonzero"/></g></g></svg>